<svg width="24" height="22" viewBox="0 0 24 22" fill="none" xmlns="http://www.w3.org/2000/svg">
    <path d="M21.8239 10.3333V3.33333C21.8239 2.23333 21.097 1.33333 20.2085 1.33333H4.05466C3.1662 1.33333 2.43928 2.23333 2.43928 3.33333V10.3333" stroke="white" stroke-width="2" stroke-miterlimit="10"/>
    <path d="M5.67005 10.3333V8.33333C5.67005 7.23333 6.39697 6.33333 7.28543 6.33333H10.5162C11.4047 6.33333 12.1316 7.23333 12.1316 8.33333V10.3333" stroke="white" stroke-width="2" stroke-miterlimit="10"/>
    <path d="M12.1316 10.3333V8.33333C12.1316 7.23333 12.8585 6.33333 13.747 6.33333H16.9777C17.8662 6.33333 18.5931 7.23333 18.5931 8.33333V10.3333" stroke="white" stroke-width="2" stroke-miterlimit="10"/>
    <path d="M1.63158 12.3333V20.3333H4.05465V18.3333H20.2085V20.3333H22.6316V12.3333C22.6316 11.2333 21.9047 10.3333 21.0162 10.3333H3.24696C2.3585 10.3333 1.63158 11.2333 1.63158 12.3333Z" stroke="white" stroke-width="2" stroke-miterlimit="10"/>
</svg>
